. 
 
http://www.torrenting.com          :     Once & For all ;)


               www . Torrenting . Com 

(((((((((((((= Enjoy No RAR releases =))))))))))))))))))))


...................................NFO:....................................

.








































          
          
              
              
                    
                    
                    
                    
Despicable.Me.2010.DVDRiP.XviD.AC3-SiC

Poster:
[img]http://img703.imageshack.us/img703/3907/despic.png[/img]

IMDB Link: 
http://www.imdb.com/title/tt1323594

Description:
In a happy suburban neighbourhood surrounded by white picket fences with flowering rose bushes, sits a black house with a dead lawn. Unbeknownst to the neighbours, hidden deep beneath this home is a vast secret hideout. Surrounded by an army of tireless, little yellow minions, we discover Gru, planning the biggest heist in the history of the world. He is going to steal the moon (Yes, the moon!) to prove to his Mum that he is better than the other super-villains, especially the new kid on the block, Vector.Gru delights in all things wicked. Armed with his arsenal of shrink rays, freeze guns and battle-ready vehicles for land and air, he vanquishes all who stand in his way. Until the day he encounters the immense will of three little orphaned girls who look at him and see something that no one else has ever seen: a potential dad.

Animation | Comedy | Family

General:
Complete name                            : Despicable.Me.2010.DVDRiP.XviD.AC3-SiC.avi
Format                                   : AVI
Format/Info                              : Audio Video Interleave
File size                                : 1.10 GiB
Duration                                 : 1h 34mn
Overall bit rate                         : 1 668 Kbps

Video
ID                                       : 0
Format                                   : MPEG-4 Visual
Format profile                           : Advanced Simple@L5
Format settings, BVOP                    : 4
Format settings, QPel                    : No
Format settings, GMC                     : No warppoints
Format settings, Matrix                  : Default (H.263)
Codec ID                                 : XVID
Codec ID/Hint                            : XviD
Duration                                 : 1h 34mn
Bit rate                                 : 1 276 Kbps
Width                                    : 720 pixels
Height                                   : 384 pixels
Display aspect ratio                     : 1.875
Frame rate                               : 23.976 fps
Color space                              : YUV
Chroma subsampling                       : 4:2:0
Bit depth                                : 8 bits
Scan type                                : Progressive
Compression mode                         : Lossy
Bits/(Pixel*Frame)                       : 0.193
Stream size                              : 866 MiB (77%)
Writing library                          : XviD 1.2.1 (UTC 2008-12-04)

Audio
ID                                       : 1
Format                                   : AC-3
Format/Info                              : Audio Coding 3
Mode extension                           : CM (complete main)
Codec ID                                 : 2000
Duration                                 : 1h 34mn
Bit rate mode                            : Constant
Bit rate                                 : 384 Kbps
Channel(s)                               : 6 channels
Channel positions                        : Front: L C R, Side: L R, LFE
Sampling rate                            : 48.0 KHz
Bit depth                                : 16 bits
Compression mode                         : Lossy
Stream size                              : 260 MiB (23%)
Alignment                                : Aligned on interleaves
Interleave, duration                     : 64 ms (1.53 video frames)
Interleave, preload duration             : 192 ms
Title                                    : 5.1 6ch

Screenshots:
[IMG]http://img252.imageshack.us/img252/203/vlcsnap2012013100h54m57.png[/IMG]
[IMG]http://img85.imageshack.us/img85/1107/vlcsnap2012013100h55m34.png[/IMG]
[IMG]http://img843.imageshack.us/img843/6218/vlcsnap2012013100h55m54.png[/IMG]
[IMG]http://img198.imageshack.us/img198/803/vlcsnap2012013100h56m14.png[/IMG]
[IMG]http://img515.imageshack.us/img515/5275/vlcsnap2012013100h56m27.png[/IMG]

Note:  Normal rip, added a few filters, came together real nice:)

Source:  Ours

Enjoy!

Respects to T00NG0D, ELEKTRI4KA, PA, YeFsTe, MrRep and everyone in the struggle...